inDegrees=no
num_controls=7
num_derivatives=13
num_iterations=129
num_multipliers=7
num_parameters=0
num_slacks=7
num_states=26
objective=0.522960
objective_accelerations=0.016615
objective_balance=0.002272
objective_effort=0.029146
objective_height=0.463620
objective_ligament=0.011306
solver_duration=1672.689771
status=Solve_Succeeded
success=true
DataType=double
version=3
OpenSimVersion=4.5
endheader
time	/jointset/ground_pelvis/pelvis_tilt/value	/jointset/ground_pelvis/pelvis_tx/value	/jointset/ground_pelvis/pelvis_ty/value	/jointset/hip_l/hip_flexion_l/value	/jointset/hip_l/hip_adduction_l/value	/jointset/hip_l/hip_rotation_l/value	/jointset/back/lumbar_extension/value	/jointset/patellofemoral_l/patellar_flexion_l/value	/jointset/knee_l/knee_flexion_l/value	/jointset/knee_l/knee_adduction_l/value	/jointset/knee_l/knee_rotation_l/value	/jointset/ankle_l/ankle_angle_l/value	/jointset/subtalar_l/subtalar_angle_l/value	/jointset/ground_pelvis/pelvis_tilt/speed	/jointset/ground_pelvis/pelvis_tx/speed	/jointset/ground_pelvis/pelvis_ty/speed	/jointset/hip_l/hip_flexion_l/speed	/jointset/hip_l/hip_adduction_l/speed	/jointset/hip_l/hip_rotation_l/speed	/jointset/back/lumbar_extension/speed	/jointset/patellofemoral_l/patellar_flexion_l/speed	/jointset/knee_l/knee_flexion_l/speed	/jointset/knee_l/knee_adduction_l/speed	/jointset/knee_l/knee_rotation_l/speed	/jointset/ankle_l/ankle_angle_l/speed	/jointset/subtalar_l/subtalar_angle_l/speed	/forceset/tau_hip_flexion_l	/forceset/tau_hip_adduction_l	/forceset/tau_hip_rotation_l	/forceset/tau_knee_flexion_l	/forceset/tau_ankle_angle_l	/forceset/tau_subtalar_angle_l	/forceset/tau_lumbar_extension	lambda_cid13_p0	lambda_cid13_p1	lambda_cid13_p2	lambda_cid13_p3	lambda_cid13_p4	lambda_cid13_p5	lambda_cid14_p0	/jointset/ground_pelvis/pelvis_tilt/accel	/jointset/ground_pelvis/pelvis_tx/accel	/jointset/ground_pelvis/pelvis_ty/accel	/jointset/hip_l/hip_flexion_l/accel	/jointset/hip_l/hip_adduction_l/accel	/jointset/hip_l/hip_rotation_l/accel	/jointset/back/lumbar_extension/accel	/jointset/patellofemoral_l/patellar_flexion_l/accel	/jointset/knee_l/knee_flexion_l/accel	/jointset/knee_l/knee_adduction_l/accel	/jointset/knee_l/knee_rotation_l/accel	/jointset/ankle_l/ankle_angle_l/accel	/jointset/subtalar_l/subtalar_angle_l/accel	gamma_cid13_p0	gamma_cid13_p1	gamma_cid13_p2	gamma_cid13_p3	gamma_cid13_p4	gamma_cid13_p5	gamma_cid14_p0
0.5	-0.05857349020258067	-0.03150150478019268	0.8827004200570235	0.5889925269766179	-0.3078199236124574	-0.2241580170787259	-0.744211884445838	0.4789807893637399	0.4789807893637398	-0.1360405529591441	-0.174485322012583	-0.01701672822937746	-0.01855028498897524	-0.05089148876766287	-0.1899653624045615	-0.116588807116687	0.6807204768816186	-0.02343776148077792	0.1856610625740706	-0.8497067697996754	0.5851971755710099	0.5851971755710081	0.09383494296508539	0.0002606990540901872	-0.009043835366671782	-0.02927003949368456	-0.227377285795808	0.02218981548200846	-0.0007436698006103018	-0.1375621474338365	0.1098647447589289	0.0520052084691514	0.2937498722478699	-9.846630488743948	-22.6968557929668	5.260280581151797	-4.149495050218504	-708.0090507733015	-85.00967589298072	-23.27339508429703	0.1068888564853832	0.3867546807477967	0.04256605448164526	-0.9339486630550186	0.08093297500372312	-0.2647561731553264	1.125732742105355	-0.6199686961712181	-0.6199686961712189	-0.07426903148506374	-0.0008030199028470162	0.1869424811646155	0.1482902644649589	2.285212993487088e-10	-5.404453768596695e-08	-4.781791967017175e-09	-1.30915674498276e-08	6.958202096128982e-09	3.03933512238998e-09	-8.347957480981861e-09
0.51	-0.05907711977701685	-0.03338163538729313	0.8815368762920416	0.5957521281299459	-0.3080505757949809	-0.2223149729291621	-0.7526514441873915	0.4848008221928868	0.484800822192887	-0.1351066938081497	-0.1744830410371927	-0.01709805259987995	-0.018835973533018	-0.04982309613382011	-0.1860417531301145	-0.1160946247279296	0.6710865375192346	-0.02271795464950787	0.1829379965769497	-0.8381005036442771	0.5787074874382534	0.5787074874382917	0.09286294857521746	0.0001940366127401263	-0.007241282717508337	-0.02790020070204648	-0.2319837074071305	0.02276277519639472	-0.0007013714354159435	-0.1377867396844111	0.1102667822560649	0.05264827860623372	0.298471029623639	-9.806425209002663	-22.94626808701051	5.257880524971989	-4.296452640016841	-709.8196820965185	-85.04324409775931	-23.20596569188617	0.1085135760551743	0.3980122850199451	0.05664417420898198	-0.9950989942079791	0.06372194497024698	-0.2775517182199628	1.193774782267952	-0.6787527282846229	-0.6787527282842684	-0.1197652971121853	-0.009815623812157229	0.1738738178804364	0.1264595882281078	1.223890002147898e-09	-4.75810779473435e-08	-6.393215658238006e-09	-1.340178358029782e-08	1.00563058682463e-08	3.540906672035838e-09	-7.257530843933545e-09
0.52	-0.05956972560327031	-0.03522196025480376	0.8803790343195744	0.6024119934053748	-0.3082747864276341	-0.2204994534206155	-0.7609718010213888	0.4905529013694149	0.4905529013694152	-0.1341847747319288	-0.1744814702397296	-0.01716195901167316	-0.01910893790880139	-0.04868673913111921	-0.1820042144865959	-0.1154484486137244	0.6607733013017858	-0.02214945150673241	0.1801561343706493	-0.8258661882884433	0.5716064450472271	0.57160644504723	0.09144692801036847	0.0001186634686042997	-0.005560243624815759	-0.02672520584181338	-0.2365901290184529	0.02333573491078101	-0.0006590730702216394	-0.1380113319349858	0.1106688197532009	0.05329134874331532	0.3031921869994082	-9.770276727878368	-23.19554167785834	5.256111263108233	-4.453528976343043	-711.7026174858453	-85.08767149809518	-23.13546079499217	0.1204817302570122	0.409540554562106	0.07296479957120959	-1.069808034062898	0.05067223730480258	-0.2765154149912199	1.251342582192486	-0.7422395478251352	-0.7422395478251348	-0.1630742664812703	-0.002545160494289699	0.1626397698704446	0.1093214781839607	2.317662995673544e-09	-4.155893249042993e-08	-8.183796942405479e-09	-1.372273901466843e-08	1.350001765575802e-08	3.29411913102565e-09	-6.095236533848481e-09
0.53	-0.06005069509357569	-0.03702138299976392	0.8792284245317562	0.6089655566829408	-0.3084937444287691	-0.2187124201481291	-0.7691667514848771	0.4962309782581444	0.4962309782581449	-0.1332784351387539	-0.1744808484761146	-0.01720960160347245	-0.0193707706299525	-0.04750068931781568	-0.1778653257483513	-0.1146465499901442	0.6498425412505557	-0.02163685130701404	0.1771972979830911	-0.8130288377652222	0.563908775463412	0.5639087754634085	0.08982428435161662	-1.549605705531147e-05	-0.003984666302226839	-0.02564083961999303	-0.2409541752331733	0.02390421166377851	-0.0006452776815343016	-0.1384070595633783	0.1112335505291131	0.05383783441011061	0.307703325489805	-9.683862144713117	-23.4125852449576	5.250249227182787	-4.604842045944407	-713.5390083212243	-85.09914718078416	-23.06208756884124	0.1186366224285621	0.4183115687536327	0.08784929948460889	-1.119231820950647	0.05235588506007176	-0.313553590776434	1.314191283985674	-0.798553152000084	-0.798553152000433	-0.1613730454005835	-0.0220292436620648	0.1525571748238414	0.1080760879408032	3.541189854581969e-09	-3.654645652263066e-08	-1.12459774766081e-08	-1.428717292401225e-08	1.690327843116725e-08	3.362827607688922e-09	-4.950334515166946e-09
